<svg width="124" height="128" viewBox="0 0 124 128" fill="none" xmlns="http://www.w3.org/2000/svg">
<g clip-path="url(#clip0_16_92)">
<path d="M123.641 28.8109C123.687 28.9807 123.711 29.1558 123.711 29.3316V56.6679C123.711 57.3821 123.329 58.0417 122.709 58.397L99.7655 71.6067V97.7895C99.7655 98.502 99.3868 99.1598 98.769 99.5186L50.8756 127.089C50.766 127.151 50.6464 127.191 50.5268 127.234C50.482 127.249 50.4396 127.276 50.3923 127.288C50.0575 127.377 49.7056 127.377 49.3708 127.288C49.316 127.273 49.2661 127.244 49.2138 127.224C49.1042 127.184 48.9896 127.149 48.8849 127.089L1.00157 99.5186C0.382427 99.1629 0 98.5035 0 97.7895V15.7806C0 15.6012 0.0249146 15.4268 0.0697609 15.2574C0.0847096 15.2001 0.11959 15.1478 0.139522 15.0905C0.176894 14.9858 0.211774 14.8787 0.266586 14.7815C0.303958 14.7167 0.35877 14.6644 0.403617 14.6046C0.46092 14.5249 0.513241 14.4427 0.58051 14.3729C0.637814 14.3156 0.712558 14.2733 0.777336 14.2234C0.849588 14.1636 0.914366 14.0989 0.996584 14.0515H0.999075L24.942 0.266265C25.559 -0.0887551 26.3182 -0.0887551 26.9352 0.266265L50.8781 14.0515H50.8831C50.9628 14.1013 51.0301 14.1636 51.1023 14.2209C51.1671 14.2708 51.2394 14.3156 51.2967 14.3704C51.3664 14.4427 51.4163 14.5249 51.4761 14.6046C51.5184 14.6644 51.5757 14.7167 51.6106 14.7815C51.6679 14.8812 51.7003 14.9858 51.7401 15.0905C51.7601 15.1478 51.795 15.2001 51.8099 15.2599C51.8558 15.4297 51.8792 15.6047 51.8797 15.7806V67.0025L71.8313 55.5144V29.3291C71.8313 29.1547 71.8562 28.9778 71.901 28.8109C71.9185 28.7511 71.9509 28.6988 71.9708 28.6415C72.0107 28.5369 72.0455 28.4297 72.1004 28.3326C72.1377 28.2678 72.1925 28.2155 72.2349 28.1557C72.2947 28.0759 72.3445 27.9937 72.4143 27.924C72.4716 27.8667 72.5438 27.8243 72.6086 27.7745C72.6834 27.7147 72.7481 27.6499 72.8279 27.6026H72.8304L96.7758 13.8173C97.3926 13.4618 98.1521 13.4618 98.769 13.8173L122.712 27.6026C122.797 27.6524 122.861 27.7147 122.936 27.772C122.998 27.8218 123.071 27.8667 123.128 27.9215C123.198 27.9937 123.248 28.0759 123.307 28.1557C123.352 28.2155 123.407 28.2678 123.442 28.3326C123.499 28.4297 123.532 28.5369 123.571 28.6415C123.594 28.6988 123.626 28.7511 123.641 28.8109ZM119.72 55.5144V32.7823L111.341 37.6058L99.7655 44.2704V67.0025L119.722 55.5144H119.72ZM95.7767 96.6359V73.8889L84.3907 80.3916L51.8772 98.948V121.909L95.7767 96.6359ZM3.99132 19.2313V96.6359L47.8859 121.907V98.9505L24.9545 85.9725L24.947 85.9675L24.937 85.9625C24.8598 85.9177 24.795 85.8529 24.7228 85.7981C24.6605 85.7483 24.5882 85.7084 24.5334 85.6536L24.5284 85.6461C24.4636 85.5838 24.4188 85.5066 24.364 85.4368C24.3142 85.3696 24.2544 85.3123 24.2145 85.2425L24.212 85.235C24.1672 85.1603 24.1398 85.0706 24.1074 84.9859C24.075 84.9111 24.0326 84.8414 24.0127 84.7616V84.7591C23.9878 84.6645 23.9828 84.5648 23.9728 84.4677C23.9629 84.3929 23.9429 84.3182 23.9429 84.2434V84.2384V30.7194L12.3701 24.0522L3.99132 19.2337V19.2313ZM25.9411 4.29745L5.99196 15.7806L25.9361 27.2637L45.8827 15.7781L25.9361 4.29745H25.9411ZM36.3155 75.9618L47.8884 69.2996V19.2313L39.5096 24.0547L27.9342 30.7194V80.7878L36.3155 75.9618ZM97.7724 17.8485L77.8257 29.3316L97.7724 40.8148L117.716 29.3291L97.7724 17.8485ZM95.7767 44.2704L84.2014 37.6058L75.8226 32.7823V55.5144L87.3954 62.1766L95.7767 67.0025V44.2704ZM49.879 95.4973L79.1362 78.7946L93.7611 70.4482L73.8294 58.9725L50.8806 72.1848L29.9648 84.226L49.879 95.4973Z" fill="#FF2D20"/>
</g>
<defs>
<clipPath id="clip0_16_92">
<rect width="123.711" height="127.577" fill="white"/>
</clipPath>
</defs>
</svg>
