<svg width="121" height="73" viewBox="0 0 121 73" fill="none" xmlns="http://www.w3.org/2000/svg">
<g clip-path="url(#clip0_16_106)">
<mask id="mask0_16_106" style="mask-type:luminance" maskUnits="userSpaceOnUse" x="0" y="0" width="121" height="73">
<path d="M0 0H121V72.6H0V0Z" fill="white"/>
</mask>
<g mask="url(#mask0_16_106)">
<path fill-rule="evenodd" clip-rule="evenodd" d="M60.5 0C44.3667 0 34.2833 8.06667 30.25 24.2C36.3 16.1333 43.3583 13.1083 51.425 15.125C56.0275 16.2745 59.3169 19.6154 62.9581 23.3104C68.8893 29.3313 75.755 36.3 90.75 36.3C106.883 36.3 116.967 28.2333 121 12.1C114.95 20.1667 107.892 23.1917 99.825 21.175C95.2225 20.0255 91.9331 16.6846 88.2919 12.9896C82.3607 6.9687 75.495 0 60.5 0ZM30.25 36.3C14.1167 36.3 4.03333 44.3667 0 60.5C6.05 52.4333 13.1083 49.4083 21.175 51.425C25.7775 52.5767 29.0669 55.9154 32.7081 59.6104C38.6393 65.6313 45.505 72.6 60.5 72.6C76.6333 72.6 86.7167 64.5333 90.75 48.4C84.7 56.4667 77.6417 59.4917 69.575 57.475C64.9725 56.3255 61.6831 52.9846 58.0419 49.2896C52.1107 43.2687 45.245 36.3 30.25 36.3Z" fill="#38BDF8"/>
</g>
</g>
<defs>
<clipPath id="clip0_16_106">
<rect width="121" height="72.6" fill="white"/>
</clipPath>
</defs>
</svg>
